<svg xmlns="http://www.w3.org/2000/svg" width="18" height="18" viewBox="0 0 18 18">
  <path id="apartment_FILL1_wght400_GRAD0_opsz24" d="M122-822a1.926,1.926,0,0,1-1.413-.588A1.926,1.926,0,0,1,120-824v-10a1.926,1.926,0,0,1,.588-1.413A1.926,1.926,0,0,1,122-836h2v-2a1.926,1.926,0,0,1,.588-1.412A1.926,1.926,0,0,1,126-840h6a1.926,1.926,0,0,1,1.413.588A1.926,1.926,0,0,1,134-838v6h2a1.926,1.926,0,0,1,1.413.588A1.926,1.926,0,0,1,138-830v6a1.926,1.926,0,0,1-.587,1.412A1.926,1.926,0,0,1,136-822h-6v-4h-2v4Zm0-2h2v-2h-2Zm0-4h2v-2h-2Zm0-4h2v-2h-2Zm4,4h2v-2h-2Zm0-4h2v-2h-2Zm0-4h2v-2h-2Zm4,8h2v-2h-2Zm0-4h2v-2h-2Zm0-4h2v-2h-2Zm4,12h2v-2h-2Zm0-4h2v-2h-2Z" transform="translate(-120 840)" fill="#6a6a6a"/>
</svg>
