<svg xmlns="http://www.w3.org/2000/svg" width="20" height="20" viewBox="0 0 20 20">
  <path id="dashboard_FILL1_wght400_GRAD0_opsz24" d="M132.222-833.333a1.075,1.075,0,0,1-.792-.319,1.075,1.075,0,0,1-.319-.792v-4.444a1.075,1.075,0,0,1,.319-.792,1.075,1.075,0,0,1,.792-.319h6.667a1.075,1.075,0,0,1,.792.319,1.075,1.075,0,0,1,.319.792v4.444a1.075,1.075,0,0,1-.319.792,1.075,1.075,0,0,1-.792.319Zm-11.111,4.444a1.075,1.075,0,0,1-.792-.319A1.075,1.075,0,0,1,120-830v-8.889a1.075,1.075,0,0,1,.319-.792,1.075,1.075,0,0,1,.792-.319h6.667a1.075,1.075,0,0,1,.792.319,1.075,1.075,0,0,1,.319.792V-830a1.075,1.075,0,0,1-.319.792,1.075,1.075,0,0,1-.792.319ZM132.222-820a1.075,1.075,0,0,1-.792-.32,1.075,1.075,0,0,1-.319-.792V-830a1.075,1.075,0,0,1,.319-.792,1.075,1.075,0,0,1,.792-.319h6.667a1.075,1.075,0,0,1,.792.319A1.075,1.075,0,0,1,140-830v8.889a1.075,1.075,0,0,1-.319.792,1.075,1.075,0,0,1-.792.32Zm-11.111,0a1.075,1.075,0,0,1-.792-.32,1.075,1.075,0,0,1-.319-.792v-4.444a1.075,1.075,0,0,1,.319-.792,1.075,1.075,0,0,1,.792-.319h6.667a1.075,1.075,0,0,1,.792.319,1.075,1.075,0,0,1,.319.792v4.444a1.075,1.075,0,0,1-.319.792,1.075,1.075,0,0,1-.792.32Z" transform="translate(-120 840)" fill="#16425b"/>
</svg>
