<svg xmlns="http://www.w3.org/2000/svg" width="18" height="18" viewBox="0 0 18 18">
  <path id="dashboard_FILL1_wght400_GRAD0_opsz24" d="M131-834a.967.967,0,0,1-.712-.288A.967.967,0,0,1,130-835v-4a.968.968,0,0,1,.288-.713A.968.968,0,0,1,131-840h6a.968.968,0,0,1,.713.287A.968.968,0,0,1,138-839v4a.967.967,0,0,1-.287.712A.967.967,0,0,1,137-834Zm-10,4a.968.968,0,0,1-.713-.287A.968.968,0,0,1,120-831v-8a.968.968,0,0,1,.287-.713A.968.968,0,0,1,121-840h6a.968.968,0,0,1,.713.287A.968.968,0,0,1,128-839v8a.968.968,0,0,1-.287.713A.968.968,0,0,1,127-830Zm10,8a.967.967,0,0,1-.712-.288A.967.967,0,0,1,130-823v-8a.968.968,0,0,1,.288-.713A.968.968,0,0,1,131-832h6a.968.968,0,0,1,.713.287A.968.968,0,0,1,138-831v8a.967.967,0,0,1-.287.712A.967.967,0,0,1,137-822Zm-10,0a.967.967,0,0,1-.713-.288A.967.967,0,0,1,120-823v-4a.968.968,0,0,1,.287-.713A.968.968,0,0,1,121-828h6a.968.968,0,0,1,.713.287A.968.968,0,0,1,128-827v4a.967.967,0,0,1-.287.712A.967.967,0,0,1,127-822Z" transform="translate(-120 840)" fill="#16425b"/>
</svg>
