<svg xmlns="http://www.w3.org/2000/svg" width="18" height="11" viewBox="0 0 18 11">
  <g id="dumbbell-svgrepo-com" transform="translate(-2 -5)">
    <path id="Path_213" data-name="Path 213" d="M20,7.7v4.6a13.437,13.437,0,0,1-.137,2.589,1.8,1.8,0,0,1-.974.974A4.49,4.49,0,0,1,17.3,16a4.49,4.49,0,0,1-1.589-.137,1.8,1.8,0,0,1-.974-.974A19.049,19.049,0,0,1,14.6,11.85V8.15a7.915,7.915,0,0,1,.137-2.039,1.8,1.8,0,0,1,.974-.974A4.489,4.489,0,0,1,17.3,5a4.489,4.489,0,0,1,1.589.137,1.8,1.8,0,0,1,.974.974A4.49,4.49,0,0,1,20,7.7ZM7.4,8.15v3.7a19.044,19.044,0,0,1-.137,3.039,1.8,1.8,0,0,1-.974.974A4.49,4.49,0,0,1,4.7,16a4.49,4.49,0,0,1-1.589-.137,1.8,1.8,0,0,1-.974-.974A13.434,13.434,0,0,1,2,12.3V7.7a4.489,4.489,0,0,1,.137-1.589,1.8,1.8,0,0,1,.974-.974A4.489,4.489,0,0,1,4.7,5a4.489,4.489,0,0,1,1.589.137,1.8,1.8,0,0,1,.974.974A7.913,7.913,0,0,1,7.4,8.15Z" transform="translate(0)" fill="#6a6a6a" fill-rule="evenodd"/>
    <path id="Path_214" data-name="Path 214" d="M15.217,10.5H8v4h7.217Z" transform="translate(-0.608 -2)" fill="#6a6a6a"/>
  </g>
</svg>
