<svg xmlns="http://www.w3.org/2000/svg" width="18" height="18" viewBox="0 0 18 18">
  <path id="insert_chart_FILL1_wght400_GRAD0_opsz24" d="M122-822a1.926,1.926,0,0,1-1.413-.588A1.926,1.926,0,0,1,120-824v-14a1.926,1.926,0,0,1,.588-1.412A1.926,1.926,0,0,1,122-840h14a1.926,1.926,0,0,1,1.413.588A1.926,1.926,0,0,1,138-838v14a1.926,1.926,0,0,1-.587,1.412A1.926,1.926,0,0,1,136-822Zm3-11a.968.968,0,0,0-.712.287A.968.968,0,0,0,124-832v5a.968.968,0,0,0,.288.713A.968.968,0,0,0,125-826a.968.968,0,0,0,.713-.287A.968.968,0,0,0,126-827v-5a.968.968,0,0,0-.287-.713A.968.968,0,0,0,125-833Zm4-3a.968.968,0,0,0-.712.287A.968.968,0,0,0,128-835v8a.968.968,0,0,0,.288.713A.968.968,0,0,0,129-826a.968.968,0,0,0,.712-.287A.968.968,0,0,0,130-827v-8a.968.968,0,0,0-.288-.713A.968.968,0,0,0,129-836Zm4,6a.968.968,0,0,0-.712.287A.968.968,0,0,0,132-829v2a.968.968,0,0,0,.288.713A.968.968,0,0,0,133-826a.968.968,0,0,0,.713-.287A.968.968,0,0,0,134-827v-2a.968.968,0,0,0-.287-.713A.968.968,0,0,0,133-830Z" transform="translate(-120 840)" fill="#6a6a6a"/>
</svg>
