<svg xmlns="http://www.w3.org/2000/svg" width="21" height="21" viewBox="0 0 21 21">
  <g id="logout-2-svgrepo-com" transform="translate(-1.25 -1.25)">
    <path id="Path_435" data-name="Path 435" d="M14.714,1.25a26.168,26.168,0,0,0-3.222.114,3.57,3.57,0,0,0-2.182.959,3.422,3.422,0,0,0-.9,1.883,16.166,16.166,0,0,0-.161,2.656A.724.724,0,1,0,9.7,6.87a14.893,14.893,0,0,1,.138-2.4,1.973,1.973,0,0,1,.5-1.112,2.164,2.164,0,0,1,1.351-.543,25.641,25.641,0,0,1,3.082-.1h.966a25.64,25.64,0,0,1,3.082.1,2.164,2.164,0,0,1,1.351.543A2.215,2.215,0,0,1,20.7,4.725a26.557,26.557,0,0,1,.1,3.118v7.814a26.557,26.557,0,0,1-.1,3.118,2.215,2.215,0,0,1-.537,1.367,2.164,2.164,0,0,1-1.351.543,25.655,25.655,0,0,1-3.082.1h-.966a25.655,25.655,0,0,1-3.082-.1,2.164,2.164,0,0,1-1.351-.543,1.973,1.973,0,0,1-.5-1.112,14.894,14.894,0,0,1-.138-2.4.724.724,0,1,0-1.448.008,16.165,16.165,0,0,0,.161,2.656,3.422,3.422,0,0,0,.9,1.883,3.57,3.57,0,0,0,2.182.959,26.184,26.184,0,0,0,3.222.114h1.072a26.186,26.186,0,0,0,3.222-.114,3.57,3.57,0,0,0,2.182-.959,3.651,3.651,0,0,0,.948-2.207,27.087,27.087,0,0,0,.112-3.259V7.789a27.086,27.086,0,0,0-.112-3.259,3.651,3.651,0,0,0-.948-2.207,3.57,3.57,0,0,0-2.182-.959,26.17,26.17,0,0,0-3.222-.114Z" transform="translate(0)" fill="#fff"/>
    <path id="Path_436" data-name="Path 436" d="M15,11.25a.75.75,0,0,1,0,1.5H4.027l1.961,1.681a.75.75,0,1,1-.976,1.139l-3.5-3a.75.75,0,0,1,0-1.139l3.5-3a.75.75,0,0,1,.976,1.139L4.027,11.25Z" transform="translate(0 -0.25)" fill="#fff"/>
  </g>
</svg>
