<svg xmlns="http://www.w3.org/2000/svg" width="18" height="15.623" viewBox="0 0 18 15.623">
  <path id="manage_accounts_FILL1_wght400_GRAD0_opsz24" d="M80-787.134v-.735a2.751,2.751,0,0,1,.391-1.436,2.568,2.568,0,0,1,1.08-1,14.519,14.519,0,0,1,2.723-1.057,10.774,10.774,0,0,1,2.883-.391.571.571,0,0,1,.505.287.662.662,0,0,1,.069.609,7.235,7.235,0,0,0-.207.965,6.98,6.98,0,0,0-.069.988,5.915,5.915,0,0,0,.138,1.287A7.038,7.038,0,0,0,87.9-786.4a.743.743,0,0,1-.034.747.68.68,0,0,1-.609.356H81.838a1.77,1.77,0,0,1-1.3-.54A1.77,1.77,0,0,1,80-787.134Zm13.785,0a1.77,1.77,0,0,0,1.3-.54,1.77,1.77,0,0,0,.54-1.3,1.77,1.77,0,0,0-.54-1.3,1.77,1.77,0,0,0-1.3-.54,1.77,1.77,0,0,0-1.3.54,1.77,1.77,0,0,0-.54,1.3,1.77,1.77,0,0,0,.54,1.3A1.77,1.77,0,0,0,93.785-787.134Zm-6.433-5.514a3.54,3.54,0,0,1-2.6-1.08,3.54,3.54,0,0,1-1.08-2.6,3.54,3.54,0,0,1,1.08-2.6,3.54,3.54,0,0,1,2.6-1.08,3.54,3.54,0,0,1,2.6,1.08,3.54,3.54,0,0,1,1.08,2.6,3.54,3.54,0,0,1-1.08,2.6A3.54,3.54,0,0,1,87.352-792.648Zm5.376,7.536-.138-.643q-.276-.115-.517-.241a3.994,3.994,0,0,1-.494-.31l-.666.207a.856.856,0,0,1-.586-.023.923.923,0,0,1-.448-.368l-.184-.322a.9.9,0,0,1-.115-.6.808.808,0,0,1,.3-.528l.505-.437a4.243,4.243,0,0,1-.046-.6,4.242,4.242,0,0,1,.046-.6l-.505-.437a.8.8,0,0,1-.3-.517.877.877,0,0,1,.115-.586l.207-.345a.93.93,0,0,1,.437-.368.822.822,0,0,1,.574-.023l.666.207a4.009,4.009,0,0,1,.494-.31q.241-.126.517-.241l.138-.666a.88.88,0,0,1,.31-.517.868.868,0,0,1,.563-.2h.368a.838.838,0,0,1,.563.207.933.933,0,0,1,.31.528l.138.643a4.63,4.63,0,0,1,.517.253,3.62,3.62,0,0,1,.494.345l.62-.207a.866.866,0,0,1,.62,0,.885.885,0,0,1,.46.391l.184.322a.9.9,0,0,1,.115.6.808.808,0,0,1-.3.528l-.505.437a3.49,3.49,0,0,1,.046.574,3.49,3.49,0,0,1-.046.574l.505.437a.8.8,0,0,1,.3.517.877.877,0,0,1-.115.586l-.207.345a.93.93,0,0,1-.437.368.822.822,0,0,1-.574.023l-.666-.207a4,4,0,0,1-.494.31q-.241.126-.517.241l-.138.666a.88.88,0,0,1-.31.517.868.868,0,0,1-.563.2H93.6a.838.838,0,0,1-.563-.207A.933.933,0,0,1,92.728-785.112Z" transform="translate(-80 800)" fill="#6a6a6a"/>
</svg>
