<svg xmlns="http://www.w3.org/2000/svg" width="16.531" height="18" viewBox="0 0 16.531 18">
  <path id="receipt_FILL1_wght400_GRAD0_opsz24" d="M120-854.918v-16.714a.215.215,0,0,1,.138-.218.215.215,0,0,1,.253.057l.666.666a.441.441,0,0,0,.321.138.441.441,0,0,0,.321-.138l.735-.735a.44.44,0,0,1,.321-.138.44.44,0,0,1,.321.138l.735.735a.441.441,0,0,0,.321.138.441.441,0,0,0,.321-.138l.735-.735a.44.44,0,0,1,.321-.138.44.44,0,0,1,.321.138l.735.735a.441.441,0,0,0,.321.138.441.441,0,0,0,.321-.138l.735-.735a.44.44,0,0,1,.321-.138.44.44,0,0,1,.321.138l.735.735a.441.441,0,0,0,.321.138.441.441,0,0,0,.321-.138l.735-.735a.44.44,0,0,1,.321-.138.44.44,0,0,1,.321.138l.735.735a.441.441,0,0,0,.321.138.441.441,0,0,0,.321-.138l.735-.735a.44.44,0,0,1,.321-.138.44.44,0,0,1,.321.138l.735.735a.441.441,0,0,0,.321.138.441.441,0,0,0,.321-.138l.666-.666a.215.215,0,0,1,.253-.057.215.215,0,0,1,.138.218v16.714a.43.43,0,0,1-.276.436.431.431,0,0,1-.505-.115l-.276-.276a.44.44,0,0,0-.321-.138.44.44,0,0,0-.321.138l-.735.735a.44.44,0,0,1-.321.138.44.44,0,0,1-.321-.138l-.735-.735a.44.44,0,0,0-.321-.138.44.44,0,0,0-.321.138l-.735.735a.44.44,0,0,1-.321.138.44.44,0,0,1-.321-.138l-.735-.735a.44.44,0,0,0-.321-.138.44.44,0,0,0-.321.138l-.735.735a.44.44,0,0,1-.321.138.44.44,0,0,1-.321-.138l-.735-.735a.44.44,0,0,0-.321-.138.44.44,0,0,0-.321.138l-.735.735a.44.44,0,0,1-.321.138.44.44,0,0,1-.321-.138l-.735-.735a.44.44,0,0,0-.321-.138.44.44,0,0,0-.321.138l-.735.735a.44.44,0,0,1-.321.138.44.44,0,0,1-.321-.138l-.735-.735a.44.44,0,0,0-.321-.138.44.44,0,0,0-.321.138l-.276.276a.431.431,0,0,1-.505.115A.43.43,0,0,1,120-854.918Zm3.673-3.49h9.184a.889.889,0,0,0,.654-.264.889.889,0,0,0,.264-.654.888.888,0,0,0-.264-.654.889.889,0,0,0-.654-.264h-9.184a.889.889,0,0,0-.654.264.888.888,0,0,0-.264.654.889.889,0,0,0,.264.654A.889.889,0,0,0,123.673-858.408Zm0-3.673h9.184a.889.889,0,0,0,.654-.264.889.889,0,0,0,.264-.654.889.889,0,0,0-.264-.654.889.889,0,0,0-.654-.264h-9.184a.889.889,0,0,0-.654.264.889.889,0,0,0-.264.654.889.889,0,0,0,.264.654A.889.889,0,0,0,123.673-862.082Zm0-3.673h9.184a.889.889,0,0,0,.654-.264.889.889,0,0,0,.264-.654.889.889,0,0,0-.264-.654.889.889,0,0,0-.654-.264h-9.184a.889.889,0,0,0-.654.264.889.889,0,0,0-.264.654.889.889,0,0,0,.264.654A.889.889,0,0,0,123.673-865.755Z" transform="translate(-120 872)" fill="#6a6a6a"/>
</svg>
