<svg xmlns="http://www.w3.org/2000/svg" width="20" height="20" viewBox="0 0 20 20">
  <path id="search_FILL0_wght400_GRAD0_opsz48" d="M24.138,25.64l-3.9-3.93a7.6,7.6,0,0,1-2.413,1.4,8.53,8.53,0,0,1-2.931.5A8.583,8.583,0,0,1,8.586,21.02,8.507,8.507,0,0,1,6,14.778,8.507,8.507,0,0,1,8.586,8.536,8.543,8.543,0,0,1,14.861,5.95a8.446,8.446,0,0,1,6.223,2.586,8.536,8.536,0,0,1,2.569,6.242,8.6,8.6,0,0,1-.483,2.862,8.754,8.754,0,0,1-1.448,2.586l3.968,3.93a.9.9,0,0,1,.31.707,1.072,1.072,0,0,1-.345.776,1.082,1.082,0,0,1-1.517,0Zm-9.278-4.1a6.451,6.451,0,0,0,4.758-1.983,6.54,6.54,0,0,0,1.965-4.776A6.54,6.54,0,0,0,19.618,10a6.451,6.451,0,0,0-4.758-1.983A6.548,6.548,0,0,0,10.051,10a6.511,6.511,0,0,0-1.982,4.776,6.511,6.511,0,0,0,1.982,4.776A6.548,6.548,0,0,0,14.861,21.538Z" transform="translate(-6 -5.95)" fill="#ababab"/>
</svg>
