<svg xmlns="http://www.w3.org/2000/svg" width="17.136" height="18" viewBox="0 0 17.136 18">
  <path id="settings_FILL1_wght400_GRAD0_opsz24_1_" data-name="settings_FILL1_wght400_GRAD0_opsz24(1)" d="M106.71-862a1.49,1.49,0,0,1-1.046-.405,1.654,1.654,0,0,1-.529-.99l-.2-1.485a3.408,3.408,0,0,1-.551-.27q-.259-.157-.506-.337l-1.395.585a1.466,1.466,0,0,1-1.125.045,1.659,1.659,0,0,1-.878-.72l-1.058-1.845a1.428,1.428,0,0,1-.18-1.1,1.708,1.708,0,0,1,.607-.967l1.193-.9a2.15,2.15,0,0,1-.022-.3v-.607a2.15,2.15,0,0,1,.022-.3l-1.193-.9a1.707,1.707,0,0,1-.607-.967,1.428,1.428,0,0,1,.18-1.1l1.058-1.845a1.659,1.659,0,0,1,.878-.72,1.466,1.466,0,0,1,1.125.045l1.395.585a6.131,6.131,0,0,1,.517-.338,4.537,4.537,0,0,1,.54-.27l.2-1.485a1.654,1.654,0,0,1,.529-.99A1.49,1.49,0,0,1,106.71-880h2.115a1.49,1.49,0,0,1,1.046.405,1.654,1.654,0,0,1,.529.99l.2,1.485a3.42,3.42,0,0,1,.551.27q.259.157.506.338l1.4-.585a1.466,1.466,0,0,1,1.125-.045,1.659,1.659,0,0,1,.878.72l1.057,1.845a1.428,1.428,0,0,1,.18,1.1,1.707,1.707,0,0,1-.607.967l-1.193.9a2.15,2.15,0,0,1,.022.3v.607a1.1,1.1,0,0,1-.045.3l1.193.9a1.708,1.708,0,0,1,.607.967,1.428,1.428,0,0,1-.18,1.1l-1.08,1.845a1.659,1.659,0,0,1-.877.72,1.466,1.466,0,0,1-1.125-.045l-1.35-.585a6.127,6.127,0,0,1-.518.337,4.518,4.518,0,0,1-.54.27l-.2,1.485a1.654,1.654,0,0,1-.529.99,1.49,1.49,0,0,1-1.046.405Zm1.1-5.85a3.035,3.035,0,0,0,2.228-.922,3.035,3.035,0,0,0,.923-2.228,3.035,3.035,0,0,0-.923-2.227,3.035,3.035,0,0,0-2.228-.922,3.024,3.024,0,0,0-2.239.922,3.054,3.054,0,0,0-.911,2.227,3.054,3.054,0,0,0,.911,2.228A3.024,3.024,0,0,0,107.813-867.85Z" transform="translate(-99.2 880)" fill="#6a6a6a"/>
</svg>
