<svg xmlns="http://www.w3.org/2000/svg" width="50" height="50" viewBox="0 0 50 50">
  <path id="facebook-svgrepo-com" d="M54,28.994A25.161,25.161,0,0,0,39.258,6.363a24.88,24.88,0,0,0-26.611,3.914A25.171,25.171,0,0,0,25.093,54.148V36.32h-6.25V28.994h6.25V23.428a8.932,8.932,0,0,1,2.394-7.141,8.815,8.815,0,0,1,6.981-2.732,37.029,37.029,0,0,1,5.594.5v6.289H36.937a3.612,3.612,0,0,0-2.977,1,3.661,3.661,0,0,0-1.086,2.962v4.748h6.938l-1.125,7.326H32.906V53.991a24.962,24.962,0,0,0,15.152-8.565A25.249,25.249,0,0,0,54,28.994Z" transform="translate(-4.001 -4.148)" fill="#2c2c2c"/>
</svg>
