<svg id="google-play-badge-logo-svgrepo-com" xmlns="http://www.w3.org/2000/svg" xmlns:xlink="http://www.w3.org/1999/xlink" width="200" height="59.259" viewBox="0 0 200 59.259">
  <defs>
    <linearGradient id="linear-gradient" x1="0.908" y1="1.032" x2="-0.383" y2="0.36" gradientUnits="objectBoundingBox">
      <stop offset="0" stop-color="#00a0ff"/>
      <stop offset="0.007" stop-color="#00a1ff"/>
      <stop offset="0.26" stop-color="#00beff"/>
      <stop offset="0.512" stop-color="#00d2ff"/>
      <stop offset="0.76" stop-color="#00dfff"/>
      <stop offset="1" stop-color="#00e3ff"/>
    </linearGradient>
    <linearGradient id="linear-gradient-2" x1="1.077" y1="0.729" x2="-1.307" y2="0.729" gradientUnits="objectBoundingBox">
      <stop offset="0" stop-color="#ffe000"/>
      <stop offset="0.409" stop-color="#ffbd00"/>
      <stop offset="0.775" stop-color="orange"/>
      <stop offset="1" stop-color="#ff9c00"/>
    </linearGradient>
    <linearGradient id="linear-gradient-3" x1="0.864" y1="-0.023" x2="-0.499" y2="-1.789" gradientUnits="objectBoundingBox">
      <stop offset="0" stop-color="#ff3a44"/>
      <stop offset="1" stop-color="#c31162"/>
    </linearGradient>
    <linearGradient id="linear-gradient-4" x1="-0.186" y1="2.701" x2="0.423" y2="1.909" gradientUnits="objectBoundingBox">
      <stop offset="0" stop-color="#32a071"/>
      <stop offset="0.069" stop-color="#2da771"/>
      <stop offset="0.476" stop-color="#15cf74"/>
      <stop offset="0.801" stop-color="#06e775"/>
      <stop offset="1" stop-color="#00f076"/>
    </linearGradient>
  </defs>
  <path id="Path_73" data-name="Path 73" d="M192.593,59.259H7.407A7.335,7.335,0,0,1,0,51.852V7.407A7.335,7.335,0,0,1,7.407,0H192.593A7.335,7.335,0,0,1,200,7.407V51.852A7.335,7.335,0,0,1,192.593,59.259Z"/>
  <path id="Path_74" data-name="Path 74" d="M192.593,1.185a6.26,6.26,0,0,1,6.222,6.222V51.852a6.26,6.26,0,0,1-6.222,6.222H7.407a6.26,6.26,0,0,1-6.222-6.222V7.407A6.26,6.26,0,0,1,7.407,1.185H192.593m0-1.185H7.407A7.429,7.429,0,0,0,0,7.407V51.852a7.335,7.335,0,0,0,7.407,7.407H192.593A7.335,7.335,0,0,0,200,51.852V7.407A7.429,7.429,0,0,0,192.593,0Z" fill="#a6a6a6"/>
  <path id="Path_75" data-name="Path 75" d="M50.29,11.789a4.036,4.036,0,0,1-1.037,2.963,4.651,4.651,0,0,1-6.519,0,4.356,4.356,0,0,1-1.333-3.26,4.356,4.356,0,0,1,1.333-3.26A4.356,4.356,0,0,1,45.993,6.9a3.945,3.945,0,0,1,1.778.444A3.227,3.227,0,0,1,49.1,8.382l-.741.741a2.763,2.763,0,0,0-2.371-1.037,2.948,2.948,0,0,0-2.371,1.037,3.052,3.052,0,0,0-1.037,2.519,3.052,3.052,0,0,0,1.037,2.519A3.815,3.815,0,0,0,45.993,15.2a3.25,3.25,0,0,0,2.519-1.037,2.454,2.454,0,0,0,.741-1.778h-3.26V11.2h4.3v.593Zm6.816-3.7h-4V10.9h3.7v1.037H53.1v2.815h4v1.185H51.92V7.048h5.186Zm4.889,7.853H60.809V8.085H58.291V7.048h6.223V8.085H61.995Zm6.816,0V7.048H70v8.89Zm6.223,0H73.848V8.085H71.329V7.048H77.4V8.085H74.885v7.853Zm14.076-1.185a4.651,4.651,0,0,1-6.519,0,4.356,4.356,0,0,1-1.333-3.26,4.356,4.356,0,0,1,1.333-3.26,4.651,4.651,0,0,1,6.519,0,4.356,4.356,0,0,1,1.333,3.26A4.356,4.356,0,0,1,89.109,14.753Zm-5.63-.741a3.5,3.5,0,0,0,2.371,1.037,2.948,2.948,0,0,0,2.371-1.037,3.575,3.575,0,0,0,1.037-2.519A3.052,3.052,0,0,0,88.22,8.974a3.5,3.5,0,0,0-2.371-1.037,2.948,2.948,0,0,0-2.371,1.037,3.574,3.574,0,0,0-1.037,2.519A3.052,3.052,0,0,0,83.479,14.012Zm8.594,1.926V7.048h1.333l4.3,6.964V7.048h1.185v8.89H97.7l-4.593-7.26v7.26H92.072Z" transform="translate(19.931 3.322)" fill="#fff" stroke="#fff" stroke-width="0.2"/>
  <path id="Path_76" data-name="Path 76" d="M81.1,24.064a6.233,6.233,0,0,0-6.371,6.371A6.324,6.324,0,0,0,81.1,36.806a6.233,6.233,0,0,0,6.371-6.371A6.147,6.147,0,0,0,81.1,24.064Zm0,10.075a3.678,3.678,0,0,1-3.556-3.852A3.678,3.678,0,0,1,81.1,26.434a3.589,3.589,0,0,1,3.556,3.852A3.678,3.678,0,0,1,81.1,34.139ZM67.325,24.064a6.233,6.233,0,0,0-6.371,6.371,6.324,6.324,0,0,0,6.371,6.371A6.233,6.233,0,0,0,73.7,30.435,6.147,6.147,0,0,0,67.325,24.064Zm0,10.075a3.678,3.678,0,0,1-3.556-3.852,3.678,3.678,0,0,1,3.556-3.852,3.589,3.589,0,0,1,3.556,3.852A3.678,3.678,0,0,1,67.325,34.139ZM50.879,25.99v2.667H57.25a5.6,5.6,0,0,1-1.482,3.408,6.558,6.558,0,0,1-4.889,1.926,6.9,6.9,0,0,1-6.964-7.112,6.989,6.989,0,0,1,6.964-7.112,7.346,7.346,0,0,1,4.889,1.926l1.926-1.926A9.494,9.494,0,0,0,51.027,17.1,9.995,9.995,0,0,0,41.1,26.879a9.995,9.995,0,0,0,9.927,9.779,8.527,8.527,0,0,0,6.816-2.815,8.919,8.919,0,0,0,2.371-6.223,5.556,5.556,0,0,0-.148-1.63Zm67.266,2.074a5.757,5.757,0,0,0-5.334-4c-3.26,0-5.927,2.519-5.927,6.371a6.2,6.2,0,0,0,6.223,6.371,6.078,6.078,0,0,0,5.186-2.815l-2.074-1.482a3.612,3.612,0,0,1-3.111,1.778A3.215,3.215,0,0,1,110,32.361l8.445-3.556Zm-8.594,2.074a3.6,3.6,0,0,1,3.26-3.7,2.621,2.621,0,0,1,2.371,1.333l-5.63,2.371Zm-6.964,6.075H105.4V17.693h-2.815ZM98.143,25.4a4.878,4.878,0,0,0-3.408-1.482,6.366,6.366,0,0,0-6.075,6.371,6.135,6.135,0,0,0,6.075,6.223,4.254,4.254,0,0,0,3.26-1.482h.148v.889c0,2.371-1.333,3.7-3.408,3.7A3.292,3.292,0,0,1,91.624,37.4l-2.371,1.037a6.112,6.112,0,0,0,5.63,3.7c3.26,0,5.927-1.926,5.927-6.519V24.36H98.143V25.4Zm-3.26,8.742a3.678,3.678,0,0,1-3.556-3.852,3.678,3.678,0,0,1,3.556-3.852,3.565,3.565,0,0,1,3.408,3.852A3.565,3.565,0,0,1,94.884,34.139Zm36.152-16.446h-6.667V36.213h2.815V29.249h3.852a5.786,5.786,0,1,0,0-11.557Zm.148,8.89h-4V20.211h4a3.254,3.254,0,0,1,3.26,3.111A3.391,3.391,0,0,1,131.184,26.583Zm17.039-2.667c-2.074,0-4.149.889-4.889,2.815l2.519,1.037a2.617,2.617,0,0,1,2.519-1.333,2.784,2.784,0,0,1,2.963,2.371v.148a5.877,5.877,0,0,0-2.815-.741c-2.667,0-5.334,1.482-5.334,4.149a4.341,4.341,0,0,0,4.593,4.149,4.169,4.169,0,0,0,3.556-1.778h.148v1.482h2.667V29.1A5.607,5.607,0,0,0,148.223,23.916Zm-.3,10.223c-.889,0-2.222-.444-2.222-1.63,0-1.482,1.63-1.926,2.963-1.926a5.73,5.73,0,0,1,2.519.593A3.451,3.451,0,0,1,147.926,34.139Zm15.557-9.779-3.111,8h-.148l-3.26-8H154l4.889,11.26-2.815,6.223h2.815l7.556-17.483h-2.963ZM138.592,36.213h2.815V17.693h-2.815Z" transform="translate(19.774 8.23)" fill="#fff"/>
  <g id="Group_110" data-name="Group 110" transform="translate(14.816 10.586)">
    <path id="Path_77" data-name="Path 77" d="M10.593,7.5A2.9,2.9,0,0,0,10,9.574V42.319a2.931,2.931,0,0,0,.741,2.074l.148.148L29.261,26.169v-.3Z" transform="translate(-10 -6.977)" fill="url(#linear-gradient)"/>
    <path id="Path_78" data-name="Path 78" d="M28.975,28.394,22.9,22.319v-.444L28.975,15.8l.148.148,7.26,4.149c2.074,1.185,2.074,3.111,0,4.3Z" transform="translate(-3.787 -2.98)" fill="url(#linear-gradient-2)"/>
    <path id="Path_79" data-name="Path 79" d="M35.143,26.223,28.921,20,10.4,38.521c.741.741,1.778.741,3.111.148L35.143,26.223" transform="translate(-9.807 -0.957)" fill="url(#linear-gradient-3)"/>
    <path id="Path_80" data-name="Path 80" d="M35.143,19.956,13.511,7.658c-1.333-.741-2.371-.593-3.111.148L28.921,26.179l6.223-6.223Z" transform="translate(-9.807 -7.136)" fill="url(#linear-gradient-4)"/>
    <path id="Path_81" data-name="Path 81" d="M35,24.1,13.511,36.249a2.423,2.423,0,0,1-2.963,0L10.4,36.4l.148.148a2.423,2.423,0,0,0,2.963,0Z" transform="translate(-9.807 1.018)" opacity="0.2"/>
    <path id="Path_82" data-name="Path 82" d="M10.593,38.224A2.9,2.9,0,0,1,10,36.15V36.3a2.931,2.931,0,0,0,.741,2.074v-.148h-.148Zm32-16.3-7.408,4.149.148.148,7.26-4.149A2.463,2.463,0,0,0,44.078,20C44.078,20.741,43.485,21.333,42.6,21.926Z" transform="translate(-10 -0.957)" opacity="0.12"/>
    <path id="Path_83" data-name="Path 83" d="M13.7,7.818,42.6,24.264c.889.593,1.482,1.185,1.482,1.926A2.463,2.463,0,0,0,42.6,24.116L13.7,7.67C11.63,6.485,10,7.374,10,9.744v.148C10,7.67,11.63,6.633,13.7,7.818Z" transform="translate(-10 -7.147)" fill="#fff" opacity="0.25"/>
  </g>
</svg>
