<svg id="download-on-the-app-store-apple-logo-svgrepo-com" xmlns="http://www.w3.org/2000/svg" width="199.998" height="59.259" viewBox="0 0 199.998 59.259">
  <path id="Path_66" data-name="Path 66" d="M200.916,54.505a5.676,5.676,0,0,1-5.683,5.676H9.252a5.684,5.684,0,0,1-5.69-5.676V9.244a5.691,5.691,0,0,1,5.69-5.683H195.231a5.682,5.682,0,0,1,5.683,5.683V54.505Z" transform="translate(-2.243 -2.242)" fill="#fff"/>
  <path id="Path_67" data-name="Path 67" d="M192.99,59.259H7.01A7.01,7.01,0,0,1,0,52.265V7A7.015,7.015,0,0,1,7.01,0H192.989A7.018,7.018,0,0,1,200,7v45.26a7.009,7.009,0,0,1-7.008,7Z" fill="#a6a6a6"/>
  <path id="Path_68" data-name="Path 68" d="M200.916,54.505a5.676,5.676,0,0,1-5.683,5.676H9.252a5.684,5.684,0,0,1-5.69-5.676V9.244a5.691,5.691,0,0,1,5.69-5.683H195.231a5.682,5.682,0,0,1,5.683,5.683V54.505Z" transform="translate(-2.243 -2.242)"/>
  <path id="Path_69" data-name="Path 69" d="M76.892,44.98a8.59,8.59,0,0,1,4.093-7.208,8.8,8.8,0,0,0-6.931-3.746c-2.916-.307-5.744,1.744-7.229,1.744-1.515,0-3.8-1.715-6.267-1.664a9.228,9.228,0,0,0-7.767,4.736C49.431,44.655,51.937,53.2,55.155,57.9c1.61,2.3,3.491,4.871,5.953,4.781,2.409-.1,3.308-1.534,6.215-1.534,2.88,0,3.725,1.534,6.236,1.476,2.585-.04,4.213-2.312,5.766-4.634a18.994,18.994,0,0,0,2.637-5.369,8.311,8.311,0,0,1-5.069-7.638ZM72.149,30.934a8.454,8.454,0,0,0,1.936-6.059,8.616,8.616,0,0,0-5.57,2.881,8.045,8.045,0,0,0-1.986,5.836A7.117,7.117,0,0,0,72.149,30.934Z" transform="translate(-32.234 -15.662)" fill="#fff"/>
  <g id="Group_108" data-name="Group 108" transform="translate(62.893 26.673)">
    <path id="Path_71" data-name="Path 71" d="M186.465,92.029H183.1l-1.844-5.793h-6.409l-1.757,5.793h-3.277l6.352-19.721h3.922l6.38,19.721ZM180.7,83.806l-1.668-5.15q-.265-.789-.995-3.715h-.059q-.293,1.258-.937,3.715l-1.639,5.15Zm22.068.938a8.051,8.051,0,0,1-1.971,5.733,5.781,5.781,0,0,1-4.385,1.873,4.389,4.389,0,0,1-4.061-2.017v7.461h-3.16V82.482q0-2.278-.117-4.674h2.779l.176,2.254h.059a5.623,5.623,0,0,1,9-.559A7.862,7.862,0,0,1,202.767,84.744Zm-3.22.116a5.861,5.861,0,0,0-.937-3.425,3.238,3.238,0,0,0-2.751-1.4,3.287,3.287,0,0,0-2.121.775,3.6,3.6,0,0,0-1.244,2.035,4.124,4.124,0,0,0-.147.962v2.373a3.8,3.8,0,0,0,.952,2.62,3.159,3.159,0,0,0,2.472,1.068,3.239,3.239,0,0,0,2.779-1.375A6.051,6.051,0,0,0,199.548,84.859Zm19.579-.116a8.051,8.051,0,0,1-1.971,5.733,5.784,5.784,0,0,1-4.386,1.873,4.389,4.389,0,0,1-4.061-2.017v7.461h-3.16V82.482q0-2.278-.117-4.674h2.779l.176,2.254h.059a5.624,5.624,0,0,1,9-.559,7.87,7.87,0,0,1,1.681,5.24Zm-3.221.116a5.862,5.862,0,0,0-.938-3.425,3.233,3.233,0,0,0-2.748-1.4,3.3,3.3,0,0,0-2.124.775,3.592,3.592,0,0,0-1.242,2.035,4.221,4.221,0,0,0-.148.962v2.373a3.817,3.817,0,0,0,.95,2.62,3.166,3.166,0,0,0,2.475,1.068,3.236,3.236,0,0,0,2.779-1.375A6.051,6.051,0,0,0,215.906,84.859ZM237.419,86.5a5.267,5.267,0,0,1-1.754,4.1,7.774,7.774,0,0,1-5.373,1.726,9.381,9.381,0,0,1-5.108-1.228l.731-2.633a8.794,8.794,0,0,0,4.565,1.23,4.308,4.308,0,0,0,2.779-.8,2.628,2.628,0,0,0,1-2.149,2.754,2.754,0,0,0-.821-2.02,7.613,7.613,0,0,0-2.721-1.52q-5.181-1.932-5.182-5.649a4.987,4.987,0,0,1,1.829-3.979,7.234,7.234,0,0,1,4.844-1.552,9.575,9.575,0,0,1,4.478.937l-.793,2.576a7.831,7.831,0,0,0-3.79-.907,3.855,3.855,0,0,0-2.615.819,2.345,2.345,0,0,0-.793,1.787,2.415,2.415,0,0,0,.909,1.931,10.237,10.237,0,0,0,2.867,1.52,9.719,9.719,0,0,1,3.746,2.4,5,5,0,0,1,1.205,3.42Zm10.475-6.317H244.41v6.9q0,2.634,1.844,2.632a5.553,5.553,0,0,0,1.4-.147l.087,2.4a7.162,7.162,0,0,1-2.458.35,3.788,3.788,0,0,1-2.928-1.143,5.6,5.6,0,0,1-1.054-3.834V80.174h-2.075V77.8h2.075V75.2l3.1-.937V77.8h3.483V80.18ZM263.579,84.8a7.8,7.8,0,0,1-1.874,5.384A6.679,6.679,0,0,1,256.5,92.35a6.367,6.367,0,0,1-4.991-2.075,7.563,7.563,0,0,1-1.859-5.237,7.736,7.736,0,0,1,1.917-5.412,6.645,6.645,0,0,1,5.167-2.107,6.5,6.5,0,0,1,5.032,2.078,7.464,7.464,0,0,1,1.816,5.2Zm-3.276.073a6.366,6.366,0,0,0-.846-3.355,3.128,3.128,0,0,0-2.84-1.694,3.174,3.174,0,0,0-2.9,1.694,6.471,6.471,0,0,0-.848,3.414,6.347,6.347,0,0,0,.848,3.356,3.241,3.241,0,0,0,5.711-.028,6.392,6.392,0,0,0,.873-3.388Zm13.553-4.287a5.5,5.5,0,0,0-1-.087,2.983,2.983,0,0,0-2.576,1.26,4.743,4.743,0,0,0-.789,2.808v7.461h-3.16V82.287q0-2.239-.092-4.477H269l.116,2.721h.087a4.878,4.878,0,0,1,1.58-2.254,3.822,3.822,0,0,1,2.284-.762,5.075,5.075,0,0,1,.79.058Zm14.134,3.659a7.41,7.41,0,0,1-.116,1.433h-9.481a4.124,4.124,0,0,0,1.376,3.222,4.7,4.7,0,0,0,3.1.993,10.488,10.488,0,0,0,3.836-.671l.5,2.192a11.862,11.862,0,0,1-4.768.879,6.914,6.914,0,0,1-5.2-1.944,7.187,7.187,0,0,1-1.887-5.222,8.144,8.144,0,0,1,1.758-5.353,6.057,6.057,0,0,1,4.973-2.281,5.3,5.3,0,0,1,4.656,2.281A7.673,7.673,0,0,1,287.99,84.246Zm-3.013-.819A4.276,4.276,0,0,0,284.362,81a2.76,2.76,0,0,0-2.517-1.319,3,3,0,0,0-2.515,1.288,4.719,4.719,0,0,0-.935,2.457l6.581,0Z" transform="translate(-169.812 -72.016)" fill="#fff"/>
  </g>
  <g id="Group_109" data-name="Group 109" transform="translate(64.743 9.711)">
    <path id="Path_72" data-name="Path 72" d="M177.079,36.5a20.185,20.185,0,0,1-2.272-.116V26.85a17.208,17.208,0,0,1,2.676-.2c3.624,0,5.293,1.783,5.293,4.689C182.775,34.69,180.8,36.5,177.079,36.5Zm.531-8.629a6.342,6.342,0,0,0-1.251.1V35.22a8.2,8.2,0,0,0,1.049.043c2.375,0,3.726-1.351,3.726-3.883A3.162,3.162,0,0,0,177.609,27.872Zm10.367,8.7a3.327,3.327,0,0,1-3.366-3.6,3.4,3.4,0,0,1,3.482-3.7,3.3,3.3,0,0,1,3.366,3.582,3.424,3.424,0,0,1-3.482,3.709Zm.059-6.156c-1.122,0-1.841,1.049-1.841,2.516,0,1.439.734,2.488,1.826,2.488s1.826-1.122,1.826-2.518C189.847,31.481,189.128,30.417,188.036,30.417Zm15.07-.991-2.186,6.989H199.5l-.906-3.035a23,23,0,0,1-.562-2.257H198a15.127,15.127,0,0,1-.56,2.257l-.964,3.035h-1.439l-2.057-6.989h1.6l.792,3.322q.28,1.187.474,2.244h.03c.114-.588.3-1.323.575-2.229l.993-3.336H198.7l.95,3.265c.23.791.417,1.568.562,2.3h.042a20.113,20.113,0,0,1,.474-2.3l.849-3.265h1.525Zm8.049,6.989H209.6V32.4c0-1.236-.474-1.855-1.41-1.855a1.613,1.613,0,0,0-1.553,1.712v4.157h-1.553V31.424c0-.618-.015-1.28-.058-2h1.367l.073,1.079h.043a2.511,2.511,0,0,1,2.216-1.221c1.467,0,2.431,1.122,2.431,2.947v4.185Zm4.284,0h-1.555v-10.2h1.555Zm5.664.159a3.327,3.327,0,0,1-3.366-3.6,3.4,3.4,0,0,1,3.48-3.7,3.3,3.3,0,0,1,3.366,3.582,3.423,3.423,0,0,1-3.48,3.709Zm.058-6.156c-1.122,0-1.841,1.049-1.841,2.516,0,1.439.735,2.488,1.825,2.488S222.97,34.3,222.97,32.9C222.972,31.481,222.254,30.417,221.16,30.417Zm9.547,6-.113-.8h-.042a2.387,2.387,0,0,1-2.044.963,2.032,2.032,0,0,1-2.142-2.057c0-1.725,1.5-2.617,4.085-2.617V31.77c0-.92-.488-1.381-1.451-1.381a3.272,3.272,0,0,0-1.826.519l-.316-1.021a4.469,4.469,0,0,1,2.4-.6c1.826,0,2.748.963,2.748,2.891v2.574a10.555,10.555,0,0,0,.1,1.669h-1.4Zm-.213-3.481c-1.725,0-2.591.418-2.591,1.409a.99.99,0,0,0,1.066,1.092,1.487,1.487,0,0,0,1.525-1.423Zm9.057,3.481-.073-1.122h-.043a2.343,2.343,0,0,1-2.244,1.28c-1.685,0-2.933-1.482-2.933-3.567,0-2.186,1.294-3.725,3.061-3.725a2.1,2.1,0,0,1,1.971.95h.031V26.219h1.555v8.312c0,.676.016,1.309.058,1.883h-1.383Zm-.23-4.112a1.691,1.691,0,0,0-1.636-1.812c-1.152,0-1.856,1.021-1.856,2.458,0,1.409.731,2.374,1.825,2.374a1.744,1.744,0,0,0,1.668-1.855V32.3Zm11.414,4.271a3.326,3.326,0,0,1-3.365-3.6,3.4,3.4,0,0,1,3.48-3.7,3.3,3.3,0,0,1,3.366,3.582,3.423,3.423,0,0,1-3.482,3.709Zm.058-6.156c-1.121,0-1.84,1.049-1.84,2.516,0,1.439.734,2.488,1.825,2.488S252.6,34.3,252.6,32.9c0-1.423-.716-2.487-1.811-2.487Zm11.778,6h-1.555V32.4c0-1.236-.474-1.855-1.41-1.855a1.612,1.612,0,0,0-1.552,1.712v4.157H256.5V31.424c0-.618-.015-1.28-.058-2h1.367l.073,1.079h.043a2.51,2.51,0,0,1,2.215-1.223c1.467,0,2.432,1.122,2.432,2.947Zm10.452-5.824h-1.709v3.394c0,.864.3,1.3.9,1.3a3.061,3.061,0,0,0,.689-.073l.043,1.18a3.442,3.442,0,0,1-1.205.173c-1.224,0-1.957-.676-1.957-2.445V30.591h-1.02V29.426h1.02v-1.28l1.525-.461v1.74h1.709v1.166Zm8.224,5.824h-1.552V32.431c0-1.251-.473-1.883-1.41-1.883A1.523,1.523,0,0,0,276.73,32.2v4.213h-1.552v-10.2h1.552v4.2h.031a2.357,2.357,0,0,1,2.1-1.137c1.479,0,2.384,1.15,2.384,2.977v4.157Zm8.425-3.121H285.01a2.006,2.006,0,0,0,2.2,2.07,5.251,5.251,0,0,0,1.884-.33l.242,1.079a5.837,5.837,0,0,1-2.345.431,3.245,3.245,0,0,1-3.48-3.522c0-2.143,1.325-3.754,3.306-3.754,1.786,0,2.907,1.323,2.907,3.322A2.993,2.993,0,0,1,289.671,33.294Zm-1.424-1.107c0-1.079-.544-1.841-1.537-1.841a1.842,1.842,0,0,0-1.7,1.841Z" transform="translate(-174.806 -26.219)" fill="#fff"/>
  </g>
</svg>
