<svg xmlns="http://www.w3.org/2000/svg" width="20" height="24" viewBox="0 0 20 24">
  <g id="Group_63" data-name="Group 63" transform="translate(-290.278 -1467)">
    <path id="Path_56" data-name="Path 56" d="M170-850a2.543,2.543,0,0,1-.406-.03,2.524,2.524,0,0,1-.375-.091,12.6,12.6,0,0,1-6.719-5.058,13.9,13.9,0,0,1-2.5-7.944v-5.742a2.23,2.23,0,0,1,.453-1.367,2.572,2.572,0,0,1,1.172-.881l7.5-2.734A2.655,2.655,0,0,1,170-874a2.655,2.655,0,0,1,.875.152l7.5,2.734a2.572,2.572,0,0,1,1.172.881,2.23,2.23,0,0,1,.453,1.367v5.742a13.9,13.9,0,0,1-2.5,7.944,12.6,12.6,0,0,1-6.719,5.058,2.525,2.525,0,0,1-.375.091A2.543,2.543,0,0,1,170-850Z" transform="translate(130.278 2341)" fill="#e02b20"/>
    <path id="Polygon_1" data-name="Polygon 1" d="M5.026,1.41a.5.5,0,0,1,.948,0l.79,2.35a.5.5,0,0,0,.461.341l2.417.065a.5.5,0,0,1,.3.889L7.982,6.633a.5.5,0,0,0-.167.525l.694,2.457a.5.5,0,0,1-.774.541l-1.941-1.4a.5.5,0,0,0-.586,0l-1.941,1.4a.5.5,0,0,1-.774-.541l.694-2.457a.5.5,0,0,0-.167-.525L1.058,5.054a.5.5,0,0,1,.3-.889L3.776,4.1a.5.5,0,0,0,.461-.341Z" transform="translate(294.778 1472)" fill="#fff"/>
  </g>
</svg>
