<svg xmlns="http://www.w3.org/2000/svg" width="50" height="50" viewBox="0 0 50 50">
  <path id="linkedin-round-svgrepo-com" d="M-118,145a25,25,0,0,0-25,25,25,25,0,0,0,25,25,25,25,0,0,0,25-25A25,25,0,0,0-118,145Zm-6.992,35.459h-4.873v-15.6h4.873Zm-2.568-17.549h-.039a2.706,2.706,0,0,1-2.91-2.705,2.732,2.732,0,0,1,2.979-2.705,2.72,2.72,0,0,1,2.939,2.705A2.718,2.718,0,0,1-127.561,162.91Zm22.06,17.549h-5.527v-8.066c0-2.109-.859-3.555-2.764-3.555a2.786,2.786,0,0,0-2.637,1.914,3.685,3.685,0,0,0-.117,1.279v8.428h-5.478s.068-14.3,0-15.6h5.478v2.451c.322-1.074,2.07-2.6,4.863-2.6,3.467,0,6.182,2.246,6.182,7.07Z" transform="translate(143 -145)" fill="#2c2c2c"/>
</svg>
