<svg xmlns="http://www.w3.org/2000/svg" width="24" height="21.333" viewBox="0 0 24 21.333">
  <path id="local_taxi_24dp_5F6368_FILL1_wght400_GRAD0_opsz24" d="M124-741.333v.667a1.929,1.929,0,0,1-.583,1.417,1.929,1.929,0,0,1-1.417.583,1.929,1.929,0,0,1-1.417-.583,1.929,1.929,0,0,1-.583-1.417V-750.2a3.294,3.294,0,0,1,.033-.467,2.474,2.474,0,0,1,.1-.433l2.5-7.1a2.557,2.557,0,0,1,.967-1.3,2.631,2.631,0,0,1,1.567-.5h13.667a2.631,2.631,0,0,1,1.567.5,2.557,2.557,0,0,1,.967,1.3l2.5,7.1a2.474,2.474,0,0,1,.1.433,3.293,3.293,0,0,1,.033.467v9.533a1.929,1.929,0,0,1-.583,1.417,1.929,1.929,0,0,1-1.417.583,1.929,1.929,0,0,1-1.417-.583,1.929,1.929,0,0,1-.583-1.417v-.667Zm-.267-12h16.533l-1.4-4H125.133Zm2.267,8a1.929,1.929,0,0,0,1.417-.583,1.929,1.929,0,0,0,.583-1.417,1.929,1.929,0,0,0-.583-1.417,1.929,1.929,0,0,0-1.417-.583,1.929,1.929,0,0,0-1.417.583,1.929,1.929,0,0,0-.583,1.417,1.928,1.928,0,0,0,.583,1.417A1.929,1.929,0,0,0,126-745.333Zm12,0a1.929,1.929,0,0,0,1.417-.583,1.928,1.928,0,0,0,.583-1.417,1.929,1.929,0,0,0-.583-1.417,1.929,1.929,0,0,0-1.417-.583,1.929,1.929,0,0,0-1.417.583,1.929,1.929,0,0,0-.583,1.417,1.929,1.929,0,0,0,.583,1.417A1.929,1.929,0,0,0,138-745.333Z" transform="translate(-120 760)" fill="gray"/>
</svg>
