<svg xmlns="http://www.w3.org/2000/svg" width="24" height="24" viewBox="0 0 24 24">
  <path id="Path_47" data-name="Path 47" d="M130.652-818.7a10.282,10.282,0,0,1-7.558-3.093A10.282,10.282,0,0,1,120-829.349a10.282,10.282,0,0,1,3.093-7.558A10.282,10.282,0,0,1,130.652-840a10.282,10.282,0,0,1,7.558,3.093,10.282,10.282,0,0,1,3.093,7.558,9.989,9.989,0,0,1-.574,3.4,9.764,9.764,0,0,1-1.557,2.827l4.377,4.377A1.554,1.554,0,0,1,144-817.6a1.554,1.554,0,0,1-.451,1.147A1.554,1.554,0,0,1,142.4-816a1.554,1.554,0,0,1-1.147-.451l-4.377-4.377a9.768,9.768,0,0,1-2.827,1.557A9.989,9.989,0,0,1,130.652-818.7Zm0-3.277a7.111,7.111,0,0,0,5.223-2.151,7.111,7.111,0,0,0,2.151-5.223,7.111,7.111,0,0,0-2.151-5.223,7.112,7.112,0,0,0-5.223-2.151,7.112,7.112,0,0,0-5.223,2.151,7.111,7.111,0,0,0-2.151,5.223,7.111,7.111,0,0,0,2.151,5.223A7.111,7.111,0,0,0,130.652-821.974Z" transform="translate(-120 840)" fill="gray"/>
</svg>
