<svg xmlns="http://www.w3.org/2000/svg" width="18.19" height="17.42" viewBox="0 0 18.19 17.42">
  <path id="Path_18" data-name="Path 18" d="M503.5,409.081a1.223,1.223,0,0,1,2.327,0l1.309,4.027a1.222,1.222,0,0,0,1.163.845h4.234a1.223,1.223,0,0,1,.719,2.213l-3.426,2.488a1.224,1.224,0,0,0-.444,1.368l1.309,4.027a1.223,1.223,0,0,1-1.883,1.368l-3.425-2.488a1.223,1.223,0,0,0-1.439,0l-3.425,2.488a1.223,1.223,0,0,1-1.883-1.368l1.309-4.027a1.224,1.224,0,0,0-.444-1.368l-3.426-2.488a1.223,1.223,0,0,1,.719-2.213h4.234a1.222,1.222,0,0,0,1.163-.845Z" transform="translate(-495.565 -408.236)" fill="#4280ef"/>
</svg>
