<svg xmlns="http://www.w3.org/2000/svg" width="24" height="24" viewBox="0 0 24 24">
  <path id="Path_50" data-name="Path 50" d="M142.6-816a20.014,20.014,0,0,1-8.233-1.817,24.63,24.63,0,0,1-7.4-5.15,24.63,24.63,0,0,1-5.15-7.4A20.014,20.014,0,0,1,120-838.6a1.357,1.357,0,0,1,.4-1,1.357,1.357,0,0,1,1-.4h5.4a1.24,1.24,0,0,1,.833.317,1.218,1.218,0,0,1,.433.75l.867,4.667a2.351,2.351,0,0,1-.033.9,1.4,1.4,0,0,1-.367.633l-3.233,3.267a16.121,16.121,0,0,0,1.583,2.383,23.449,23.449,0,0,0,2.017,2.217,23.454,23.454,0,0,0,2.167,1.917,21.077,21.077,0,0,0,2.4,1.617l3.133-3.133a1.867,1.867,0,0,1,.783-.45,2.147,2.147,0,0,1,.95-.083l4.6.933a1.543,1.543,0,0,1,.767.483,1.173,1.173,0,0,1,.3.783v5.4a1.357,1.357,0,0,1-.4,1A1.357,1.357,0,0,1,142.6-816Zm-18.567-16,2.2-2.2-.567-3.133H122.7q.167,1.367.467,2.7A14.6,14.6,0,0,0,124.033-832Zm11.933,11.933a16.544,16.544,0,0,0,2.65.9,16.264,16.264,0,0,0,2.717.433v-2.933L138.2-822.3ZM124.033-832ZM135.967-820.067Z" transform="translate(-120 840)" fill="#e02b20"/>
</svg>
