<svg xmlns="http://www.w3.org/2000/svg" width="23.978" height="24" viewBox="0 0 23.978 24">
  <path id="Path_48" data-name="Path 48" d="M47.2-856a2.311,2.311,0,0,1-1.695-.7,2.311,2.311,0,0,1-.7-1.7,2.311,2.311,0,0,1,.7-1.7A2.311,2.311,0,0,1,47.2-860.8a2.311,2.311,0,0,1,1.695.705,2.311,2.311,0,0,1,.705,1.7,2.311,2.311,0,0,1-.705,1.7A2.311,2.311,0,0,1,47.2-856Zm12,0a2.311,2.311,0,0,1-1.695-.7,2.311,2.311,0,0,1-.7-1.7,2.311,2.311,0,0,1,.7-1.7A2.311,2.311,0,0,1,59.2-860.8a2.311,2.311,0,0,1,1.695.705,2.311,2.311,0,0,1,.705,1.7,2.311,2.311,0,0,1-.705,1.7A2.311,2.311,0,0,1,59.2-856ZM46.18-875.2l2.88,6h8.4l3.3-6Zm-1.14-2.4h17.7a1.149,1.149,0,0,1,1.05.615,1.21,1.21,0,0,1,.03,1.245l-4.26,7.68a2.4,2.4,0,0,1-.885.93,2.334,2.334,0,0,1-1.215.33H48.52l-1.32,2.4H60.4a1.161,1.161,0,0,1,.855.345,1.161,1.161,0,0,1,.345.855,1.161,1.161,0,0,1-.345.855A1.161,1.161,0,0,1,60.4-862H47.2a2.221,2.221,0,0,1-2.04-1.185,2.268,2.268,0,0,1-.06-2.355l1.62-2.94L42.4-877.6H41.2a1.161,1.161,0,0,1-.855-.345A1.161,1.161,0,0,1,40-878.8a1.161,1.161,0,0,1,.345-.855A1.161,1.161,0,0,1,41.2-880h1.95a1.206,1.206,0,0,1,.63.18,1.119,1.119,0,0,1,.45.51Zm4.02,8.4h0Z" transform="translate(-40 880)" fill="#5f6368"/>
</svg>
