<svg xmlns="http://www.w3.org/2000/svg" width="24" height="24" viewBox="0 0 24 24">
  <path id="radio_button_checked_24dp_5F6368_FILL1_wght400_GRAD0_opsz24" d="M92-862a5.783,5.783,0,0,0,4.245-1.755A5.783,5.783,0,0,0,98-868a5.782,5.782,0,0,0-1.755-4.245A5.783,5.783,0,0,0,92-874a5.783,5.783,0,0,0-4.245,1.755A5.782,5.782,0,0,0,86-868a5.783,5.783,0,0,0,1.755,4.245A5.782,5.782,0,0,0,92-862Zm0,6a11.685,11.685,0,0,1-4.68-.945,12.117,12.117,0,0,1-3.81-2.565,12.117,12.117,0,0,1-2.565-3.81A11.685,11.685,0,0,1,80-868a11.685,11.685,0,0,1,.945-4.68,12.121,12.121,0,0,1,2.565-3.81,12.12,12.12,0,0,1,3.81-2.565A11.686,11.686,0,0,1,92-880a11.686,11.686,0,0,1,4.68.945,12.12,12.12,0,0,1,3.81,2.565,12.121,12.121,0,0,1,2.565,3.81A11.686,11.686,0,0,1,104-868a11.685,11.685,0,0,1-.945,4.68,12.117,12.117,0,0,1-2.565,3.81,12.117,12.117,0,0,1-3.81,2.565A11.685,11.685,0,0,1,92-856Z" transform="translate(-80 880)" fill="gray"/>
</svg>
