<svg xmlns="http://www.w3.org/2000/svg" width="50" height="50" viewBox="0 0 50 50">
  <g id="reddit-round-svgrepo-com" transform="translate(-0.001)">
    <path id="Path_59" data-name="Path 59" d="M-6.635,378.118a1.591,1.591,0,0,0-1.8.5,1.63,1.63,0,0,0-.107,1.924A7.758,7.758,0,0,1-6.635,378.118Z" transform="translate(21.909 -355.257)" fill="#2c2c2c"/>
    <path id="Path_60" data-name="Path 60" d="M185.341,304.575a1.138,1.138,0,1,0-1.143-1.152A1.146,1.146,0,0,0,185.341,304.575Z" transform="translate(-152.245 -286.939)" fill="#2c2c2c"/>
    <path id="Path_61" data-name="Path 61" d="M20.547,365.646a12.967,12.967,0,0,0-5.508-1.563A14.368,14.368,0,0,0,8.35,365.1,8.431,8.431,0,0,0,4.9,367.56a4.272,4.272,0,0,0-.127,5.43,7.486,7.486,0,0,0,2.48,2.109,13.292,13.292,0,0,0,6.357,1.582,14.513,14.513,0,0,0,5.82-1.064,8.333,8.333,0,0,0,3.437-2.471,4.271,4.271,0,0,0,.117-5.43A7.449,7.449,0,0,0,20.547,365.646ZM8.232,369.016a2.08,2.08,0,1,1,2.012,2.1A2.076,2.076,0,0,1,8.232,369.016Zm10.01,5.059a5,5,0,0,1-2.422,1.182c-.645.137-1.3.186-1.953.283a7.743,7.743,0,0,1-3.184-.723,5.633,5.633,0,0,1-1.035-.693.759.759,0,0,1-.1-1.133.784.784,0,0,1,1.133.01,3.716,3.716,0,0,0,1.875.83,6.466,6.466,0,0,0,3.574-.273,4.967,4.967,0,0,0,1.074-.625.806.806,0,0,1,1.084.059A.753.753,0,0,1,18.242,374.074Zm-.605-2.969a2.081,2.081,0,1,1,2.148-2.051A2.087,2.087,0,0,1,17.637,371.105Z" transform="translate(10.479 -342.649)" fill="#2c2c2c"/>
    <path id="Path_62" data-name="Path 62" d="M200,378.141c.352.391.723.752,1.045,1.152s.576.859.869,1.279A1.633,1.633,0,0,0,200,378.141Z" transform="translate(-166.503 -355.28)" fill="#2c2c2c"/>
    <path id="Path_63" data-name="Path 63" d="M-118,145a25,25,0,0,0-25,25,25,25,0,0,0,25,25,25,25,0,0,0,25-25A25,25,0,0,0-118,145Zm12.207,24.8a.207.207,0,0,0-.029.068,3.259,3.259,0,0,1-1.221,2.09.269.269,0,0,0-.059.215,5.7,5.7,0,0,1-.771,3.408,8.8,8.8,0,0,1-3.5,3.242,14.594,14.594,0,0,1-6.289,1.719A15.527,15.527,0,0,1-125,179.267a9.586,9.586,0,0,1-3.965-3.047,5.747,5.747,0,0,1-1.191-4.1.317.317,0,0,0-.127-.234,3.016,3.016,0,0,1-.908-1.24c-.1-.273-.166-.557-.244-.83v-.752a8.017,8.017,0,0,1,.479-1.279,3.152,3.152,0,0,1,4.424-1.045.352.352,0,0,0,.42.01,14.159,14.159,0,0,1,5.811-1.787c.3-.029.615-.049.928-.059.156,0,.225-.068.283-.215.615-1.777,1.25-3.555,1.875-5.332.029-.078.059-.156.1-.254.664.156,1.318.312,1.973.469.889.215,1.787.42,2.676.645a.261.261,0,0,0,.342-.127,2.634,2.634,0,0,1,3.008-1.123,2.7,2.7,0,0,1,1.9,2.6,2.666,2.666,0,0,1-2.295,2.6,2.652,2.652,0,0,1-2.949-2.021.511.511,0,0,0-.459-.469c-1.064-.234-2.119-.5-3.213-.752-.469,1.328-.928,2.646-1.4,3.975.586.078,1.152.137,1.719.225a13.66,13.66,0,0,1,4.736,1.67.279.279,0,0,0,.352,0,3.186,3.186,0,0,1,4.912,2.129.362.362,0,0,0,.049.107A6.709,6.709,0,0,0-105.793,169.8Z" transform="translate(143.001 -145)" fill="#2c2c2c"/>
  </g>
</svg>
