<svg xmlns="http://www.w3.org/2000/svg" width="50" height="50" viewBox="0 0 50 50">
  <g id="youtube-round-svgrepo-com" transform="translate(0)">
    <path id="Path_64" data-name="Path 64" d="M78.9,361.509l8.184-4.8L78.9,351.9Z" transform="translate(-57.231 -331.695)" fill="#2c2c2c"/>
    <path id="Path_65" data-name="Path 65" d="M-118,145a25,25,0,0,0-25,25,25,25,0,0,0,25,25,25,25,0,0,0,25-25A25,25,0,0,0-118,145Zm12.5,29.472h0c0,4.307-4.307,4.307-4.307,4.307h-16.387c-4.307,0-4.307-4.307-4.307-4.307v-8.936c0-4.307,4.307-4.307,4.307-4.307h16.387c4.307,0,4.307,4.307,4.307,4.307Z" transform="translate(143 -145)" fill="#2c2c2c"/>
  </g>
</svg>
